<svg width="20" height="20" viewBox="0 0 20 20" fill="none" xmlns="http://www.w3.org/2000/svg">
<path d="M7.49993 9.9999C7.49993 8.6216 8.6216 7.49993 9.9999 7.49993H13.3332V0.833312C13.3332 0.373317 12.9607 0 12.4999 0H0.833312C0.372496 0 0 0.373317 0 0.833312V19.1665C0 19.6264 0.372496 19.9998 0.833312 19.9998H12.4999C12.9607 19.9998 13.3332 19.6264 13.3332 19.1665V13.3332V12.4999H9.9999C8.6216 12.4999 7.49993 11.3782 7.49993 9.9999Z" fill="white"/>
<path d="M19.8127 10.5264C19.8153 10.5233 19.8174 10.5199 19.8199 10.5168C19.8342 10.4988 19.848 10.4804 19.8608 10.4612C19.8668 10.4522 19.8719 10.4428 19.8775 10.4336C19.886 10.4198 19.8946 10.4062 19.9022 10.3919C19.9085 10.3801 19.9138 10.368 19.9194 10.3561C19.9253 10.3437 19.9315 10.3315 19.9368 10.3188C19.9424 10.3051 19.947 10.2912 19.9519 10.2773C19.956 10.2658 19.9605 10.2545 19.964 10.2427C19.969 10.2264 19.9728 10.2099 19.9767 10.1933C19.979 10.1837 19.9818 10.1742 19.9838 10.1644C19.9884 10.1417 19.9916 10.1188 19.9943 10.0959C19.9947 10.0919 19.9956 10.0881 19.996 10.0841C20.0016 10.0281 20.0016 9.97163 19.996 9.91562C19.9956 9.91163 19.9947 9.9078 19.9943 9.90386C19.9916 9.88093 19.9884 9.85808 19.9838 9.83538C19.9819 9.82558 19.9791 9.81608 19.9767 9.8064C19.9728 9.78987 19.969 9.77331 19.964 9.75702C19.9605 9.74527 19.956 9.73394 19.9519 9.72241C19.947 9.70855 19.9424 9.69456 19.9368 9.68093C19.9315 9.66823 19.9253 9.65605 19.9194 9.64366C19.9138 9.63171 19.9085 9.61964 19.9022 9.60788C19.8945 9.59359 19.886 9.57991 19.8775 9.56613C19.8719 9.55695 19.8668 9.54757 19.8608 9.53859C19.848 9.51937 19.8342 9.50097 19.8199 9.48292C19.8174 9.4798 19.8153 9.47652 19.8127 9.47339C19.794 9.45039 19.774 9.42843 19.7529 9.40757L16.4227 6.07737C16.0969 5.75155 15.5703 5.75155 15.2444 6.07737C14.9186 6.40319 14.9186 6.92986 15.2444 7.25568L17.1552 9.16648H10.0003C9.53949 9.16648 9.16699 9.5398 9.16699 9.99979C9.16699 10.4598 9.53949 10.8331 10.0003 10.8331H17.1552L15.2444 12.7439C14.9186 13.0697 14.9186 13.5964 15.2444 13.9222C15.4069 14.0847 15.6203 14.1664 15.8336 14.1664C16.0469 14.1664 16.2603 14.0847 16.4228 13.9222L19.753 10.592C19.774 10.5713 19.794 10.5494 19.8127 10.5264Z" fill="white"/>
</svg>
