<svg width="28" height="28" viewBox="0 0 28 28" fill="none" xmlns="http://www.w3.org/2000/svg">
<g clip-path="url(#clip0)">
<path d="M0 14.0182C0 18.5215 3.66449 22.185 8.1666 22.185H19.8334C24.3355 22.185 28 18.5215 28 14.0182C28 9.51498 24.3355 5.85156 19.8334 5.85156H8.1666C3.66449 5.85156 0 9.51498 0 14.0182H0ZM15.1666 14.0182C15.1666 11.4446 17.2597 9.35156 19.8334 9.35156C22.4069 9.35156 24.5 11.4446 24.5 14.0182C24.5 16.5919 22.4069 18.685 19.8334 18.685C17.2597 18.685 15.1666 16.5919 15.1666 14.0182Z" fill="#3744BD"/>
<circle cx="20" cy="14" r="5" fill="white"/>
</g>
<defs>
<clipPath id="clip0">
<rect width="28" height="28" fill="white"/>
</clipPath>
</defs>
</svg>
