<svg width="28" height="28" viewBox="0 0 28 28" fill="none" xmlns="http://www.w3.org/2000/svg">
<g clip-path="url(#clip0)">
<path d="M28 14.0185C28 9.51508 24.3355 5.85165 19.8334 5.85165L8.1666 5.85165C3.66449 5.85165 1.10765e-06 9.51507 7.13946e-07 14.0185C3.20266e-07 18.5216 3.66449 22.1851 8.1666 22.1851L19.8334 22.1851C24.3355 22.1851 28 18.5216 28 14.0185V14.0185ZM12.8334 14.0185C12.8334 16.592 10.7403 18.6851 8.1666 18.6851C5.59308 18.6851 3.5 16.592 3.5 14.0185C3.5 11.4447 5.59308 9.35165 8.1666 9.35165C10.7403 9.35165 12.8334 11.4447 12.8334 14.0185Z" fill="#C4CACB"/>
<circle cx="8" cy="14" r="5" fill="white"/>
</g>
<defs>
<clipPath id="clip0">
<rect width="28" height="28" fill="white"/>
</clipPath>
</defs>
</svg>
